# Blender 4.0.2
# www.blender.org

v 0.287630 0.425797 0.184000
v 0.287630 0.229076 0.184000
v 0.117735 0.229076 0.184000
v 0.117735 0.010000 0.184000
v -0.117735 0.010000 0.184000
v -0.117735 0.229076 0.184000
v -0.679583 0.229076 0.184000
v -0.679583 0.391520 0.184000
v -0.187779 1.053219 0.184000
v 0.065574 1.053219 0.184000
v -0.390462 0.425797 0.184000
v -0.110283 0.425797 0.184000
v -0.110283 0.621028 0.184000
v 0.117735 0.621028 0.184000
v 0.117735 0.425797 0.184000
v 0.287630 0.425797 -0.184000
v 0.287630 0.229076 -0.184000
v 0.117735 0.229076 -0.184000
v 0.117735 0.010000 -0.184000
v -0.117735 0.010000 -0.184000
v -0.117735 0.229076 -0.184000
v -0.679583 0.229076 -0.184000
v -0.679583 0.391520 -0.184000
v -0.187779 1.053219 -0.184000
v 0.065574 1.053219 -0.184000
v -0.390462 0.425797 -0.184000
v -0.110283 0.425797 -0.184000
v -0.110283 0.621028 -0.184000
v 0.117735 0.621028 -0.184000
v 0.117735 0.425797 -0.184000
v 0.287630 0.425797 -0.184000
v 0.290721 0.428887 -0.183511
v 0.293508 0.431675 -0.182090
v 0.295721 0.433887 -0.179878
v 0.297141 0.435308 -0.177090
v 0.297630 0.435797 -0.174000
v 0.297630 0.435797 0.174000
v 0.297141 0.435308 0.177090
v 0.295721 0.433887 0.179878
v 0.293508 0.431675 0.182090
v 0.290721 0.428887 0.183511
v 0.287630 0.425797 0.184000
v 0.287630 0.229076 -0.184000
v 0.290721 0.225986 -0.183511
v 0.293508 0.223198 -0.182090
v 0.295721 0.220986 -0.179878
v 0.297141 0.219565 -0.177090
v 0.297630 0.219076 -0.174000
v 0.297630 0.219076 0.174000
v 0.297141 0.219565 0.177090
v 0.295721 0.220986 0.179878
v 0.293508 0.223198 0.182090
v 0.290721 0.225986 0.183511
v 0.287630 0.229076 0.184000
v 0.117735 0.229076 -0.184000
v 0.120825 0.225986 -0.183511
v 0.123613 0.223198 -0.182090
v 0.125825 0.220986 -0.179878
v 0.127245 0.219565 -0.177090
v 0.127735 0.219076 -0.174000
v 0.127735 0.219076 0.174000
v 0.127245 0.219565 0.177090
v 0.125825 0.220986 0.179878
v 0.123613 0.223198 0.182090
v 0.120825 0.225986 0.183511
v 0.117735 0.229076 0.184000
v 0.117735 0.010000 -0.184000
v 0.120825 0.006910 -0.183511
v 0.123613 0.004122 -0.182090
v 0.125825 0.001910 -0.179878
v 0.127245 0.000489 -0.177090
v 0.127735 0.000000 -0.174000
v 0.127735 -0.000000 0.174000
v 0.127245 0.000489 0.177090
v 0.125825 0.001910 0.179878
v 0.123613 0.004122 0.182090
v 0.120825 0.006910 0.183511
v 0.117735 0.010000 0.184000
v -0.117735 0.010000 -0.184000
v -0.120825 0.006910 -0.183511
v -0.123613 0.004122 -0.182090
v -0.125825 0.001910 -0.179878
v -0.127245 0.000489 -0.177090
v -0.127735 0.000000 -0.174000
v -0.127735 -0.000000 0.174000
v -0.127245 0.000489 0.177090
v -0.125825 0.001910 0.179878
v -0.123613 0.004122 0.182090
v -0.120825 0.006910 0.183511
v -0.117735 0.010000 0.184000
v -0.117735 0.229076 -0.184000
v -0.120825 0.225986 -0.183511
v -0.123613 0.223198 -0.182090
v -0.125825 0.220986 -0.179878
v -0.127245 0.219565 -0.177090
v -0.127735 0.219076 -0.174000
v -0.127735 0.219076 0.174000
v -0.127245 0.219565 0.177090
v -0.125825 0.220986 0.179878
v -0.123613 0.223198 0.182090
v -0.120825 0.225986 0.183511
v -0.117735 0.229076 0.184000
v -0.679583 0.229076 -0.184000
v -0.682673 0.225986 -0.183511
v -0.685461 0.223198 -0.182090
v -0.687673 0.220986 -0.179878
v -0.689093 0.219565 -0.177090
v -0.689583 0.219076 -0.174000
v -0.689583 0.219076 0.174000
v -0.689093 0.219565 0.177090
v -0.687673 0.220986 0.179878
v -0.685461 0.223198 0.182090
v -0.682673 0.225986 0.183511
v -0.679583 0.229076 0.184000
v -0.679583 0.391520 -0.184000
v -0.682673 0.392543 -0.183511
v -0.685461 0.393465 -0.182090
v -0.687673 0.394197 -0.179878
v -0.689093 0.394667 -0.177090
v -0.689583 0.394829 -0.174000
v -0.689583 0.394829 0.174000
v -0.689093 0.394667 0.177090
v -0.687673 0.394197 0.179878
v -0.685461 0.393465 0.182090
v -0.682673 0.392543 0.183511
v -0.679583 0.391520 0.184000
v -0.187779 1.053219 -0.184000
v -0.189333 1.056309 -0.183511
v -0.190734 1.059097 -0.182090
v -0.191847 1.061309 -0.179878
v -0.192561 1.062730 -0.177090
v -0.192807 1.063219 -0.174000
v -0.192807 1.063219 0.174000
v -0.192561 1.062730 0.177090
v -0.191847 1.061309 0.179878
v -0.190734 1.059097 0.182090
v -0.189333 1.056309 0.183511
v -0.187779 1.053219 0.184000
v 0.065574 1.053219 -0.184000
v 0.071640 1.056309 -0.183511
v 0.077113 1.059097 -0.182090
v 0.081455 1.061309 -0.179878
v 0.084244 1.062730 -0.177090
v 0.085205 1.063219 -0.174000
v 0.085205 1.063219 0.174000
v 0.084244 1.062730 0.177090
v 0.081455 1.061309 0.179878
v 0.077113 1.059097 0.182090
v 0.071640 1.056309 0.183511
v 0.065574 1.053219 0.184000
v -0.390462 0.425797 -0.184000
v -0.384396 0.428887 -0.183511
v -0.378923 0.431675 -0.182090
v -0.374580 0.433887 -0.179878
v -0.371792 0.435308 -0.177090
v -0.370831 0.435797 -0.174000
v -0.370831 0.435797 0.174000
v -0.371792 0.435308 0.177090
v -0.374580 0.433887 0.179878
v -0.378923 0.431675 0.182090
v -0.384396 0.428887 0.183511
v -0.390462 0.425797 0.184000
v -0.110283 0.425797 -0.184000
v -0.113373 0.428887 -0.183511
v -0.116161 0.431675 -0.182090
v -0.118373 0.433887 -0.179878
v -0.119794 0.435308 -0.177090
v -0.120283 0.435797 -0.174000
v -0.120283 0.435797 0.174000
v -0.119794 0.435308 0.177090
v -0.118373 0.433887 0.179878
v -0.116161 0.431675 0.182090
v -0.113373 0.428887 0.183511
v -0.110283 0.425797 0.184000
v -0.110283 0.621028 -0.184000
v -0.113373 0.624118 -0.183511
v -0.116161 0.626906 -0.182090
v -0.118373 0.629119 -0.179878
v -0.119794 0.630539 -0.177090
v -0.120283 0.631028 -0.174000
v -0.120283 0.631028 0.174000
v -0.119794 0.630539 0.177090
v -0.118373 0.629119 0.179878
v -0.116161 0.626906 0.182090
v -0.113373 0.624118 0.183511
v -0.110283 0.621028 0.184000
v 0.117735 0.621028 -0.184000
v 0.120825 0.624118 -0.183511
v 0.123613 0.626906 -0.182090
v 0.125825 0.629119 -0.179878
v 0.127245 0.630539 -0.177090
v 0.127735 0.631028 -0.174000
v 0.127735 0.631028 0.174000
v 0.127245 0.630539 0.177090
v 0.125825 0.629119 0.179878
v 0.123613 0.626906 0.182090
v 0.120825 0.624118 0.183511
v 0.117735 0.621028 0.184000
v 0.117735 0.425797 -0.184000
v 0.120825 0.428887 -0.183511
v 0.123613 0.431675 -0.182090
v 0.125825 0.433887 -0.179878
v 0.127245 0.435308 -0.177090
v 0.127735 0.435797 -0.174000
v 0.127735 0.435797 0.174000
v 0.127245 0.435308 0.177090
v 0.125825 0.433887 0.179878
v 0.123613 0.431675 0.182090
v 0.120825 0.428887 0.183511
v 0.117735 0.425797 0.184000
vn -0.0000 -0.0000 1.0000
vn -0.0000 -0.0000 -1.0000
vn 0.1980 0.1980 -0.9600
vn 0.1980 -0.1980 -0.9600
vn 0.0787 -0.0787 -0.9938
vn 0.0787 0.0787 -0.9938
vn 0.3610 0.3610 -0.8599
vn 0.3610 -0.3610 -0.8599
vn 0.5226 0.5226 -0.6736
vn 0.5226 -0.5226 -0.6736
vn 0.6543 0.6543 -0.3793
vn 0.6543 -0.6543 -0.3793
vn 0.7032 0.7032 -0.1049
vn 0.7032 -0.7032 -0.1049
vn 0.7032 0.7032 0.1049
vn 0.7032 -0.7032 0.1049
vn 0.6543 0.6543 0.3793
vn 0.6543 -0.6543 0.3793
vn 0.5226 0.5226 0.6736
vn 0.5226 -0.5226 0.6736
vn 0.3610 0.3610 0.8599
vn 0.3610 -0.3610 0.8599
vn 0.1980 0.1980 0.9600
vn 0.1980 -0.1980 0.9600
vn 0.0787 0.0787 0.9938
vn 0.0787 -0.0787 0.9938
vn 0.1203 -0.1203 -0.9854
vn 0.2882 -0.2882 -0.9132
vn 0.4666 -0.4666 -0.7513
vn 0.6319 -0.6319 -0.4487
vn 0.7024 -0.7023 -0.1158
vn 0.7024 -0.7023 0.1158
vn 0.6319 -0.6319 0.4487
vn 0.4666 -0.4666 0.7513
vn 0.2882 -0.2882 0.9132
vn 0.1203 -0.1203 0.9854
vn 0.6543 -0.6543 -0.3792
vn 0.6543 -0.6543 0.3792
vn -0.1980 -0.1980 -0.9600
vn -0.0787 -0.0787 -0.9938
vn -0.3610 -0.3610 -0.8599
vn -0.5226 -0.5226 -0.6736
vn -0.6543 -0.6543 -0.3792
vn -0.7032 -0.7032 -0.1049
vn -0.7032 -0.7032 0.1049
vn -0.6543 -0.6543 0.3792
vn -0.5226 -0.5226 0.6736
vn -0.3610 -0.3610 0.8599
vn -0.1980 -0.1980 0.9600
vn -0.0787 -0.0787 0.9938
vn -0.1203 -0.1203 -0.9854
vn -0.2882 -0.2882 -0.9132
vn -0.4666 -0.4666 -0.7513
vn -0.6319 -0.6319 -0.4487
vn -0.7024 -0.7023 -0.1158
vn -0.7024 -0.7023 0.1158
vn -0.6319 -0.6319 0.4487
vn -0.4666 -0.4666 0.7513
vn -0.2882 -0.2882 0.9132
vn -0.1203 -0.1203 0.9854
vn -0.6543 -0.6543 -0.3793
vn -0.6543 -0.6543 0.3793
vn -0.3064 0.1014 -0.9465
vn -0.1412 0.0467 -0.9889
vn -0.5593 0.1851 -0.8081
vn -0.7653 0.2532 -0.5918
vn -0.9015 0.2983 -0.3135
vn -0.9462 0.3131 -0.0812
vn -0.9462 0.3131 0.0812
vn -0.9015 0.2983 0.3135
vn -0.7653 0.2532 0.5918
vn -0.5593 0.1851 0.8081
vn -0.3064 0.1014 0.9465
vn -0.1412 0.0467 0.9889
vn -0.1428 0.2841 -0.9481
vn -0.0629 0.1252 -0.9901
vn -0.2587 0.5146 -0.8175
vn -0.3570 0.7101 -0.6069
vn -0.4247 0.8449 -0.3253
vn -0.4475 0.8902 -0.0855
vn -0.4475 0.8902 0.0855
vn -0.4247 0.8449 0.3253
vn -0.3570 0.7101 0.6069
vn -0.2587 0.5146 0.8175
vn -0.1428 0.2841 0.9481
vn -0.0629 0.1252 0.9901
vn 0.1786 0.0910 -0.9797
vn 0.0639 0.0325 -0.9974
vn 0.3366 0.1715 -0.9259
vn 0.5396 0.2749 -0.7958
vn 0.7732 0.3939 -0.4970
vn 0.8805 0.4485 -0.1533
vn 0.8805 0.4485 0.1533
vn 0.7732 0.3939 0.4970
vn 0.5396 0.2749 0.7958
vn 0.3366 0.1715 0.9259
vn 0.1786 0.0910 0.9797
vn 0.0639 0.0325 0.9974
vn 0.0849 0.0432 -0.9955
vn 0.2296 0.1169 -0.9662
vn 0.4180 0.2129 -0.8831
vn 0.6862 0.3496 -0.6379
vn 0.8756 0.4460 -0.1852
vn 0.8756 0.4460 0.1852
vn 0.6862 0.3496 0.6379
vn 0.4180 0.2129 0.8831
vn 0.2296 0.1169 0.9662
vn 0.0849 0.0432 0.9955
vn -0.1203 0.1203 -0.9854
vn -0.0787 0.0787 -0.9938
vn -0.2882 0.2882 -0.9132
vn -0.4666 0.4666 -0.7513
vn -0.6319 0.6319 -0.4487
vn -0.7024 0.7024 -0.1158
vn -0.7024 0.7024 0.1158
vn -0.6319 0.6319 0.4487
vn -0.4666 0.4666 0.7513
vn -0.2882 0.2882 0.9132
vn -0.1203 0.1203 0.9854
vn -0.0787 0.0787 0.9938
vn -0.1980 0.1980 -0.9600
vn -0.3610 0.3610 -0.8599
vn -0.5226 0.5226 -0.6736
vn -0.6543 0.6543 -0.3793
vn -0.7032 0.7032 -0.1049
vn -0.7032 0.7032 0.1049
vn -0.6543 0.6543 0.3793
vn -0.5226 0.5226 0.6736
vn -0.3610 0.3610 0.8599
vn -0.1980 0.1980 0.9600
vn 0.1203 0.1203 -0.9854
vn 0.2882 0.2882 -0.9132
vn 0.4666 0.4666 -0.7513
vn 0.6319 0.6319 -0.4487
vn 0.7024 0.7024 -0.1158
vn 0.7024 0.7024 0.1158
vn 0.6319 0.6319 0.4487
vn 0.4666 0.4666 0.7513
vn 0.2882 0.2882 0.9132
vn 0.1203 0.1203 0.9854
vt 0.500000 0.000000
vt 0.642857 0.000000
vt 0.571429 0.000000
vt 0.714286 0.000000
vt 0.785714 0.000000
vt 0.928571 0.000000
vt 0.857143 0.000000
vt 1.000000 0.000000
vt 0.000000 0.000000
vt 0.071429 0.000000
vt 0.428571 0.000000
vt 0.357143 0.000000
vt 0.285714 0.000000
vt 0.142857 0.000000
vt 0.214286 0.000000
vt 0.000000 0.090909
vt 0.066667 0.090909
vt 0.066667 0.000000
vt 0.000000 0.181818
vt 0.066667 0.181818
vt 0.000000 0.272727
vt 0.066667 0.272727
vt 0.000000 0.363636
vt 0.066667 0.363636
vt 0.000000 0.454545
vt 0.066667 0.454545
vt 0.000000 0.545455
vt 0.066667 0.545455
vt 0.000000 0.636364
vt 0.066667 0.636364
vt 0.000000 0.727273
vt 0.066667 0.727273
vt 0.000000 0.818182
vt 0.066667 0.818182
vt 0.000000 0.909091
vt 0.066667 0.909091
vt 0.000000 1.000000
vt 0.066667 1.000000
vt 0.133333 0.090909
vt 0.133333 0.000000
vt 0.133333 0.181818
vt 0.133333 0.272727
vt 0.133333 0.363636
vt 0.133333 0.454545
vt 0.133333 0.545455
vt 0.133333 0.636364
vt 0.133333 0.727273
vt 0.133333 0.818182
vt 0.133333 0.909091
vt 0.133333 1.000000
vt 0.200000 0.090909
vt 0.200000 0.000000
vt 0.200000 0.181818
vt 0.200000 0.272727
vt 0.200000 0.363636
vt 0.200000 0.454545
vt 0.200000 0.545455
vt 0.200000 0.636364
vt 0.200000 0.727273
vt 0.200000 0.818182
vt 0.200000 0.909091
vt 0.200000 1.000000
vt 0.266667 0.090909
vt 0.266667 0.000000
vt 0.266667 0.181818
vt 0.266667 0.272727
vt 0.266667 0.363636
vt 0.266667 0.454545
vt 0.266667 0.545455
vt 0.266667 0.636364
vt 0.266667 0.727273
vt 0.266667 0.818182
vt 0.266667 0.909091
vt 0.266667 1.000000
vt 0.333333 0.090909
vt 0.333333 0.000000
vt 0.333333 0.181818
vt 0.333333 0.272727
vt 0.333333 0.363636
vt 0.333333 0.454545
vt 0.333333 0.545455
vt 0.333333 0.636364
vt 0.333333 0.727273
vt 0.333333 0.818182
vt 0.333333 0.909091
vt 0.333333 1.000000
vt 0.400000 0.090909
vt 0.400000 0.000000
vt 0.400000 0.181818
vt 0.400000 0.272727
vt 0.400000 0.363636
vt 0.400000 0.454545
vt 0.400000 0.545455
vt 0.400000 0.636364
vt 0.400000 0.727273
vt 0.400000 0.818182
vt 0.400000 0.909091
vt 0.400000 1.000000
vt 0.466667 0.090909
vt 0.466667 0.000000
vt 0.466667 0.181818
vt 0.466667 0.272727
vt 0.466667 0.363636
vt 0.466667 0.454545
vt 0.466667 0.545455
vt 0.466667 0.636364
vt 0.466667 0.727273
vt 0.466667 0.818182
vt 0.466667 0.909091
vt 0.466667 1.000000
vt 0.533333 0.090909
vt 0.533333 0.000000
vt 0.533333 0.181818
vt 0.533333 0.272727
vt 0.533333 0.363636
vt 0.533333 0.454545
vt 0.533333 0.545455
vt 0.533333 0.636364
vt 0.533333 0.727273
vt 0.533333 0.818182
vt 0.533333 0.909091
vt 0.533333 1.000000
vt 0.600000 0.090909
vt 0.600000 0.000000
vt 0.600000 0.181818
vt 0.600000 0.272727
vt 0.600000 0.363636
vt 0.600000 0.454545
vt 0.600000 0.545455
vt 0.600000 0.636364
vt 0.600000 0.727273
vt 0.600000 0.818182
vt 0.600000 0.909091
vt 0.600000 1.000000
vt 0.666667 0.090909
vt 0.666667 0.000000
vt 0.666667 0.181818
vt 0.666667 0.272727
vt 0.666667 0.363636
vt 0.666667 0.454545
vt 0.666667 0.545455
vt 0.666667 0.636364
vt 0.666667 0.727273
vt 0.666667 0.818182
vt 0.666667 0.909091
vt 0.666667 1.000000
vt 0.733333 0.090909
vt 0.733333 0.000000
vt 0.733333 0.181818
vt 0.733333 0.272727
vt 0.733333 0.363636
vt 0.733333 0.454545
vt 0.733333 0.545455
vt 0.733333 0.636364
vt 0.733333 0.727273
vt 0.733333 0.818182
vt 0.733333 0.909091
vt 0.733333 1.000000
vt 0.800000 0.090909
vt 0.800000 0.000000
vt 0.800000 0.181818
vt 0.800000 0.272727
vt 0.800000 0.363636
vt 0.800000 0.454545
vt 0.800000 0.545455
vt 0.800000 0.636364
vt 0.800000 0.727273
vt 0.800000 0.818182
vt 0.800000 0.909091
vt 0.800000 1.000000
vt 0.866667 0.090909
vt 0.866667 0.000000
vt 0.866667 0.181818
vt 0.866667 0.272727
vt 0.866667 0.363636
vt 0.866667 0.454545
vt 0.866667 0.545455
vt 0.866667 0.636364
vt 0.866667 0.727273
vt 0.866667 0.818182
vt 0.866667 0.909091
vt 0.866667 1.000000
vt 0.933333 0.090909
vt 0.933333 0.000000
vt 0.933333 0.181818
vt 0.933333 0.272727
vt 0.933333 0.363636
vt 0.933333 0.454545
vt 0.933333 0.545455
vt 0.933333 0.636364
vt 0.933333 0.727273
vt 0.933333 0.818182
vt 0.933333 0.909091
vt 0.933333 1.000000
vt 1.000000 0.090909
vt 1.000000 0.181818
vt 1.000000 0.272727
vt 1.000000 0.363636
vt 1.000000 0.454545
vt 1.000000 0.545455
vt 1.000000 0.636364
vt 1.000000 0.727273
vt 1.000000 0.818182
vt 1.000000 0.909091
vt 1.000000 1.000000
s 0
usemtl Metal_gray
f 8/1/1 10/2/1 9/3/1
f 8/1/1 11/4/1 10/2/1
f 12/5/1 14/6/1 13/7/1
f 12/5/1 15/8/1 14/6/1
f 8/1/1 12/5/1 11/4/1
f 8/1/1 15/8/1 12/5/1
f 8/1/1 1/9/1 15/8/1
f 8/1/1 2/10/1 1/9/1
f 7/11/1 2/10/1 8/1/1
f 6/12/1 2/10/1 7/11/1
f 5/13/1 3/14/1 6/12/1
f 3/14/1 2/10/1 6/12/1
f 5/13/1 4/15/1 3/14/1
f 23/1/2 24/3/2 25/2/2
f 23/1/2 25/2/2 26/4/2
f 27/5/2 28/7/2 29/6/2
f 27/5/2 29/6/2 30/8/2
f 23/1/2 26/4/2 27/5/2
f 23/1/2 27/5/2 30/8/2
f 23/1/2 30/8/2 16/9/2
f 23/1/2 16/9/2 17/10/2
f 22/11/2 23/1/2 17/10/2
f 21/12/1 22/11/1 17/10/1
f 20/13/2 21/12/2 18/14/2
f 18/14/1 21/12/1 17/10/1
f 20/13/2 18/14/2 19/15/2
s 1
f 32/16/3 44/17/4 43/18/5 31/9/6
f 33/19/7 45/20/8 44/17/4 32/16/3
f 34/21/9 46/22/10 45/20/8 33/19/7
f 35/23/11 47/24/12 46/22/10 34/21/9
f 36/25/13 48/26/14 47/24/12 35/23/11
f 37/27/15 49/28/16 48/26/14 36/25/13
f 38/29/17 50/30/18 49/28/16 37/27/15
f 39/31/19 51/32/20 50/30/18 38/29/17
f 40/33/21 52/34/22 51/32/20 39/31/19
f 41/35/23 53/36/24 52/34/22 40/33/21
f 42/37/25 54/38/26 53/36/24 41/35/23
f 44/17/4 56/39/27 55/40/5 43/18/5
f 45/20/8 57/41/28 56/39/27 44/17/4
f 46/22/10 58/42/29 57/41/28 45/20/8
f 47/24/12 59/43/30 58/42/29 46/22/10
f 48/26/14 60/44/31 59/43/30 47/24/12
f 49/28/16 61/45/32 60/44/31 48/26/14
f 50/30/18 62/46/33 61/45/32 49/28/16
f 51/32/20 63/47/34 62/46/33 50/30/18
f 52/34/22 64/48/35 63/47/34 51/32/20
f 53/36/24 65/49/36 64/48/35 52/34/22
f 54/38/26 66/50/26 65/49/36 53/36/24
f 56/39/27 68/51/4 67/52/5 55/40/5
f 57/41/28 69/53/8 68/51/4 56/39/27
f 58/42/29 70/54/10 69/53/8 57/41/28
f 59/43/30 71/55/37 70/54/10 58/42/29
f 60/44/31 72/56/14 71/55/37 59/43/30
f 61/45/32 73/57/16 72/56/14 60/44/31
f 62/46/33 74/58/38 73/57/16 61/45/32
f 63/47/34 75/59/20 74/58/38 62/46/33
f 64/48/35 76/60/22 75/59/20 63/47/34
f 65/49/36 77/61/24 76/60/22 64/48/35
f 66/50/26 78/62/26 77/61/24 65/49/36
f 68/51/4 80/63/39 79/64/40 67/52/5
f 69/53/8 81/65/41 80/63/39 68/51/4
f 70/54/10 82/66/42 81/65/41 69/53/8
f 71/55/37 83/67/43 82/66/42 70/54/10
f 72/56/14 84/68/44 83/67/43 71/55/37
f 73/57/16 85/69/45 84/68/44 72/56/14
f 74/58/38 86/70/46 85/69/45 73/57/16
f 75/59/20 87/71/47 86/70/46 74/58/38
f 76/60/22 88/72/48 87/71/47 75/59/20
f 77/61/24 89/73/49 88/72/48 76/60/22
f 78/62/26 90/74/50 89/73/49 77/61/24
f 80/63/39 92/75/51 91/76/40 79/64/40
f 81/65/41 93/77/52 92/75/51 80/63/39
f 82/66/42 94/78/53 93/77/52 81/65/41
f 83/67/43 95/79/54 94/78/53 82/66/42
f 84/68/44 96/80/55 95/79/54 83/67/43
f 85/69/45 97/81/56 96/80/55 84/68/44
f 86/70/46 98/82/57 97/81/56 85/69/45
f 87/71/47 99/83/58 98/82/57 86/70/46
f 88/72/48 100/84/59 99/83/58 87/71/47
f 89/73/49 101/85/60 100/84/59 88/72/48
f 90/74/50 102/86/50 101/85/60 89/73/49
f 92/75/51 104/87/39 103/88/40 91/76/40
f 93/77/52 105/89/41 104/87/39 92/75/51
f 94/78/53 106/90/42 105/89/41 93/77/52
f 95/79/54 107/91/61 106/90/42 94/78/53
f 96/80/55 108/92/44 107/91/61 95/79/54
f 97/81/56 109/93/45 108/92/44 96/80/55
f 98/82/57 110/94/62 109/93/45 97/81/56
f 99/83/58 111/95/47 110/94/62 98/82/57
f 100/84/59 112/96/48 111/95/47 99/83/58
f 101/85/60 113/97/49 112/96/48 100/84/59
f 102/86/50 114/98/50 113/97/49 101/85/60
f 104/87/39 116/99/63 115/100/64 103/88/40
f 105/89/41 117/101/65 116/99/63 104/87/39
f 106/90/42 118/102/66 117/101/65 105/89/41
f 107/91/61 119/103/67 118/102/66 106/90/42
f 108/92/44 120/104/68 119/103/67 107/91/61
f 109/93/45 121/105/69 120/104/68 108/92/44
f 110/94/62 122/106/70 121/105/69 109/93/45
f 111/95/47 123/107/71 122/106/70 110/94/62
f 112/96/48 124/108/72 123/107/71 111/95/47
f 113/97/49 125/109/73 124/108/72 112/96/48
f 114/98/50 126/110/74 125/109/73 113/97/49
f 116/99/63 128/111/75 127/112/76 115/100/64
f 117/101/65 129/113/77 128/111/75 116/99/63
f 118/102/66 130/114/78 129/113/77 117/101/65
f 119/103/67 131/115/79 130/114/78 118/102/66
f 120/104/68 132/116/80 131/115/79 119/103/67
f 121/105/69 133/117/81 132/116/80 120/104/68
f 122/106/70 134/118/82 133/117/81 121/105/69
f 123/107/71 135/119/83 134/118/82 122/106/70
f 124/108/72 136/120/84 135/119/83 123/107/71
f 125/109/73 137/121/85 136/120/84 124/108/72
f 126/110/74 138/122/86 137/121/85 125/109/73
f 128/111/75 140/123/87 139/124/88 127/112/76
f 129/113/77 141/125/89 140/123/87 128/111/75
f 130/114/78 142/126/90 141/125/89 129/113/77
f 131/115/79 143/127/91 142/126/90 130/114/78
f 132/116/80 144/128/92 143/127/91 131/115/79
f 133/117/81 145/129/93 144/128/92 132/116/80
f 134/118/82 146/130/94 145/129/93 133/117/81
f 135/119/83 147/131/95 146/130/94 134/118/82
f 136/120/84 148/132/96 147/131/95 135/119/83
f 137/121/85 149/133/97 148/132/96 136/120/84
f 138/122/86 150/134/98 149/133/97 137/121/85
f 140/123/87 152/135/99 151/136/88 139/124/88
f 141/125/89 153/137/100 152/135/99 140/123/87
f 142/126/90 154/138/101 153/137/100 141/125/89
f 143/127/91 155/139/102 154/138/101 142/126/90
f 144/128/92 156/140/103 155/139/102 143/127/91
f 145/129/93 157/141/104 156/140/103 144/128/92
f 146/130/94 158/142/105 157/141/104 145/129/93
f 147/131/95 159/143/106 158/142/105 146/130/94
f 148/132/96 160/144/107 159/143/106 147/131/95
f 149/133/97 161/145/108 160/144/107 148/132/96
f 150/134/98 162/146/98 161/145/108 149/133/97
f 152/135/99 164/147/109 163/148/110 151/136/88
f 153/137/100 165/149/111 164/147/109 152/135/99
f 154/138/101 166/150/112 165/149/111 153/137/100
f 155/139/102 167/151/113 166/150/112 154/138/101
f 156/140/103 168/152/114 167/151/113 155/139/102
f 157/141/104 169/153/115 168/152/114 156/140/103
f 158/142/105 170/154/116 169/153/115 157/141/104
f 159/143/106 171/155/117 170/154/116 158/142/105
f 160/144/107 172/156/118 171/155/117 159/143/106
f 161/145/108 173/157/119 172/156/118 160/144/107
f 162/146/98 174/158/120 173/157/119 161/145/108
f 164/147/109 176/159/121 175/160/110 163/148/110
f 165/149/111 177/161/122 176/159/121 164/147/109
f 166/150/112 178/162/123 177/161/122 165/149/111
f 167/151/113 179/163/124 178/162/123 166/150/112
f 168/152/114 180/164/125 179/163/124 167/151/113
f 169/153/115 181/165/126 180/164/125 168/152/114
f 170/154/116 182/166/127 181/165/126 169/153/115
f 171/155/117 183/167/128 182/166/127 170/154/116
f 172/156/118 184/168/129 183/167/128 171/155/117
f 173/157/119 185/169/130 184/168/129 172/156/118
f 174/158/120 186/170/120 185/169/130 173/157/119
f 176/159/121 188/171/3 187/172/6 175/160/110
f 177/161/122 189/173/7 188/171/3 176/159/121
f 178/162/123 190/174/9 189/173/7 177/161/122
f 179/163/124 191/175/11 190/174/9 178/162/123
f 180/164/125 192/176/13 191/175/11 179/163/124
f 181/165/126 193/177/15 192/176/13 180/164/125
f 182/166/127 194/178/17 193/177/15 181/165/126
f 183/167/128 195/179/19 194/178/17 182/166/127
f 184/168/129 196/180/21 195/179/19 183/167/128
f 185/169/130 197/181/23 196/180/21 184/168/129
f 186/170/120 198/182/25 197/181/23 185/169/130
f 188/171/3 200/183/131 199/184/6 187/172/6
f 189/173/7 201/185/132 200/183/131 188/171/3
f 190/174/9 202/186/133 201/185/132 189/173/7
f 191/175/11 203/187/134 202/186/133 190/174/9
f 192/176/13 204/188/135 203/187/134 191/175/11
f 193/177/15 205/189/136 204/188/135 192/176/13
f 194/178/17 206/190/137 205/189/136 193/177/15
f 195/179/19 207/191/138 206/190/137 194/178/17
f 196/180/21 208/192/139 207/191/138 195/179/19
f 197/181/23 209/193/140 208/192/139 196/180/21
f 198/182/25 210/194/25 209/193/140 197/181/23
f 200/183/131 32/195/3 31/8/6 199/184/6
f 201/185/132 33/196/7 32/195/3 200/183/131
f 202/186/133 34/197/9 33/196/7 201/185/132
f 203/187/134 35/198/11 34/197/9 202/186/133
f 204/188/135 36/199/13 35/198/11 203/187/134
f 205/189/136 37/200/15 36/199/13 204/188/135
f 206/190/137 38/201/17 37/200/15 205/189/136
f 207/191/138 39/202/19 38/201/17 206/190/137
f 208/192/139 40/203/21 39/202/19 207/191/138
f 209/193/140 41/204/23 40/203/21 208/192/139
f 210/194/25 42/205/25 41/204/23 209/193/140
